<svg xmlns="http://www.w3.org/2000/svg" viewBox="0 0 955.49 878.68"><defs><style>.cls-1{fill:#212f64;}.cls-2{fill:#fff;}.cls-3{fill:none;}.cls-4{fill:#0071bc;}.cls-5{fill:#2e3192;}</style></defs><g id="Layer_2" data-name="Layer 2"><g id="Layer_1-2" data-name="Layer 1"><rect class="cls-1" y="292.7" width="955.49" height="293.27"/><path class="cls-1" d="M167.37,297.07H790.69l0-.07,52.52.07C786.08,151.7,644.24,48.32,479,48.32S172,151.7,114.88,297.07l52.53-.09A.36.36,0,0,0,167.37,297.07Z"/><path class="cls-1" d="M788.13,581.8H164.8l0,.06-52.51-.06c57.09,145.37,198.93,248.75,364.14,248.75S783.51,727.17,840.61,581.8l-52.52.09A.36.36,0,0,1,788.13,581.8Z"/><path class="cls-2" d="M418.31,183.6a6.73,6.73,0,0,0,6.31,4.07,7.53,7.53,0,0,0,2.16-.32,6.59,6.59,0,0,0,4-3.37,5.74,5.74,0,0,0,.16-4.63l-19.79-50.08a6.84,6.84,0,0,0-8.48-3.74,6.57,6.57,0,0,0-4,3.36,5.74,5.74,0,0,0-.16,4.63Z"/><path class="cls-2" d="M365.08,212.62a7,7,0,0,0,5.17,2.21,7.19,7.19,0,0,0,4.21-1.35,6.11,6.11,0,0,0,2.55-4.34,5.88,5.88,0,0,0-1.59-4.62L337,162.9a7.19,7.19,0,0,0-9.39-.85,6.18,6.18,0,0,0-2.55,4.34,5.92,5.92,0,0,0,1.59,4.62Z"/><path class="cls-2" d="M280.3,227l51.16,28.7a7,7,0,0,0,3.37.87,6.8,6.8,0,0,0,5.75-3.12,6.19,6.19,0,0,0,.76-4.87,6.45,6.45,0,0,0-3.13-4L287,215.88a6.87,6.87,0,0,0-9.11,2.24,6.19,6.19,0,0,0-.76,4.87A6.33,6.33,0,0,0,280.3,227Z"/><path class="cls-2" d="M445.69,176.2a6.4,6.4,0,0,0,6.34,5.21,6.09,6.09,0,0,0,1.13-.1,6.39,6.39,0,0,0,4.2-2.66,6.19,6.19,0,0,0,1-4.7l-9.89-54a6.5,6.5,0,0,0-11.68-2.46,6.22,6.22,0,0,0-1,4.7Z"/><path class="cls-2" d="M390,197.06a6.55,6.55,0,0,0,5.61,3.15,6.7,6.7,0,0,0,3.24-.85,6.32,6.32,0,0,0,3.05-3.91,6.15,6.15,0,0,0-.68-4.81L372.62,143a6.59,6.59,0,0,0-8.84-2.3,6.33,6.33,0,0,0-3.06,3.92,6.2,6.2,0,0,0,.68,4.81Z"/><path class="cls-2" d="M300.29,197l45,35.19a6.9,6.9,0,0,0,4.21,1.43,6.78,6.78,0,0,0,5.05-2.22,6.11,6.11,0,0,0,1.56-4.65,6.2,6.2,0,0,0-2.41-4.37l-45-35.18a6.9,6.9,0,0,0-9.26.79,6.1,6.1,0,0,0-1.56,4.65A6.18,6.18,0,0,0,300.29,197Z"/><path class="cls-2" d="M526.59,259.85A86.67,86.67,0,0,0,480,246.33a4.41,4.41,0,0,0-.52,0,4.36,4.36,0,0,0-.51,0,86.67,86.67,0,0,0-46.61,13.52,6.21,6.21,0,0,0-2.83,4.16,5.9,5.9,0,0,0,1.2,4.65,6.9,6.9,0,0,0,5.42,2.55,7,7,0,0,0,3.77-1.08A72.62,72.62,0,0,1,479,258.78l.51,0a4.41,4.41,0,0,0,.52,0,72.62,72.62,0,0,1,39,11.35,7,7,0,0,0,3.77,1.08,6.87,6.87,0,0,0,5.41-2.55,5.86,5.86,0,0,0,1.21-4.65A6.21,6.21,0,0,0,526.59,259.85Z"/><path class="cls-2" d="M559.56,266.91a6.86,6.86,0,0,0,9.34.7,6.29,6.29,0,0,0,.73-9.15c-22.47-25-55.15-39.28-89.67-39.28l-.49,0a4.19,4.19,0,0,0-.5,0c-34.52,0-67.2,14.32-89.68,39.28a6.3,6.3,0,0,0,.74,9.15,6.86,6.86,0,0,0,9.34-.7c19.93-22.15,48.95-34.85,79.6-34.85a3.89,3.89,0,0,0,.49,0,4.21,4.21,0,0,0,.5,0C510.61,232.06,539.63,244.76,559.56,266.91Z"/><path class="cls-2" d="M596.46,262.11a6.88,6.88,0,0,0,5.66,2.84,7.11,7.11,0,0,0,3.5-.91,6.33,6.33,0,0,0,3.1-4,5.83,5.83,0,0,0-1-4.69,145.91,145.91,0,0,0-53.71-45.91,164.64,164.64,0,0,0-72.78-17.35l-.16,0H480a1.42,1.42,0,0,0-.29,0A164.47,164.47,0,0,0,407,209.4a146,146,0,0,0-53.71,45.9,5.86,5.86,0,0,0-.95,4.7,6.24,6.24,0,0,0,3.1,4,7.08,7.08,0,0,0,3.5.91,6.88,6.88,0,0,0,5.66-2.84,132.73,132.73,0,0,1,48.87-41.76,150,150,0,0,1,134.16,0A132.81,132.81,0,0,1,596.46,262.11Z"/><path class="cls-2" d="M532.15,187.35a7.53,7.53,0,0,0,2.16.32,6.73,6.73,0,0,0,6.31-4.07l19.8-50.08a5.71,5.71,0,0,0-.17-4.63,6.53,6.53,0,0,0-4-3.36,6.85,6.85,0,0,0-8.48,3.74L528,179.35a5.74,5.74,0,0,0,.16,4.63A6.59,6.59,0,0,0,532.15,187.35Z"/><path class="cls-2" d="M581.92,209.14a6.14,6.14,0,0,0,2.54,4.34,7.24,7.24,0,0,0,4.22,1.35,7,7,0,0,0,5.17-2.2L632.31,171a5.92,5.92,0,0,0,1.59-4.62,6.18,6.18,0,0,0-2.55-4.34,7.18,7.18,0,0,0-9.39.85l-38.45,41.62A5.88,5.88,0,0,0,581.92,209.14Z"/><path class="cls-2" d="M617.59,248.6a6.19,6.19,0,0,0,.76,4.87,6.8,6.8,0,0,0,5.75,3.12,7,7,0,0,0,3.37-.87L678.63,227a6.36,6.36,0,0,0,3.13-4,6.19,6.19,0,0,0-.76-4.87,6.88,6.88,0,0,0-9.11-2.24l-51.17,28.69A6.45,6.45,0,0,0,617.59,248.6Z"/><path class="cls-2" d="M507.85,181.31a6.24,6.24,0,0,0,1.13.1,6.42,6.42,0,0,0,6.35-5.21l9.89-54a6.19,6.19,0,0,0-1-4.7A6.49,6.49,0,0,0,512.52,120l-9.89,54a6.19,6.19,0,0,0,1,4.7A6.37,6.37,0,0,0,507.85,181.31Z"/><path class="cls-2" d="M557,195.45a6.32,6.32,0,0,0,3.05,3.91,6.7,6.7,0,0,0,3.24.85,6.55,6.55,0,0,0,5.61-3.15l28.59-47.67a6.2,6.2,0,0,0,.68-4.81,6.33,6.33,0,0,0-3.06-3.92,6.59,6.59,0,0,0-8.84,2.3l-28.59,47.67A6.18,6.18,0,0,0,557,195.45Z"/><path class="cls-2" d="M602.8,226.75a6.11,6.11,0,0,0,1.56,4.65,6.76,6.76,0,0,0,5,2.22,6.9,6.9,0,0,0,4.21-1.43l45-35.19a6.18,6.18,0,0,0,2.41-4.36,6.1,6.1,0,0,0-1.56-4.65,6.9,6.9,0,0,0-9.26-.79l-45,35.18A6.2,6.2,0,0,0,602.8,226.75Z"/><path class="cls-2" d="M480.41,179.77h0a6.09,6.09,0,0,0,1.13-.1h0a6.43,6.43,0,0,0,5.32-6.26l.12-54.88a6.22,6.22,0,0,0-1.85-4.45,6.44,6.44,0,0,0-4.56-1.87h0a6.47,6.47,0,0,0-6.45,6.37L474,173.46a6.18,6.18,0,0,0,1.85,4.44A6.4,6.4,0,0,0,480.41,179.77Z"/><path class="cls-2" d="M695.22,614.57a5,5,0,0,0-3.16-2.26A242,242,0,0,0,636.89,606a238.27,238.27,0,0,0-89.74,17.31,228.13,228.13,0,0,0-69.4,43.81A226,226,0,0,0,455.44,649,231.61,231.61,0,0,0,392,617.35a242.43,242.43,0,0,0-128.56-5,5,5,0,0,0-3.16,2.26,4.56,4.56,0,0,0-.44,3.74,208.19,208.19,0,0,0,31.58,60.93,221.56,221.56,0,0,0,49.5,48.17,231.52,231.52,0,0,0,63.44,31.66c6.36,2,13,3.85,19.64,5.37l.5.11,1.59.36q1.14.26,2.28.48l1.63.34,2.39.47,1.12.21.27.05c1.87.34,3.62.64,5.34.92l.51.08,2.66.41,1.28.18c.87.13,1.75.25,2.63.36l1.18.15c1.65.21,3.29.4,4.87.56l.43,0,.85.09,2.35.22,1.81.15,2.17.17,2.45.17,2.21.13,3.27.16,1.21,0h.31l2.9.09,1.35,0c1.4,0,2.8,0,4.2,0s2.79,0,4.19,0l1.36,0c1,0,1.93,0,2.89-.09h.31l1.21,0,3.28-.16,2.2-.13,2.46-.17,2.16-.17,1.82-.15,2.34-.22.91-.1.38,0c1.63-.17,3.26-.36,4.85-.56l1.2-.15c.87-.11,1.75-.23,2.62-.36l1.29-.18,2.65-.41.53-.08c1.71-.28,3.5-.59,5.32-.92l1.39-.26,2.39-.47,1.63-.34.37-.07,1.91-.41c.58-.12,1.15-.26,1.73-.39l.36-.08c6.68-1.52,13.29-3.33,19.64-5.37a231.58,231.58,0,0,0,63.45-31.66,221.77,221.77,0,0,0,49.5-48.17,208.4,208.4,0,0,0,31.57-60.93A4.49,4.49,0,0,0,695.22,614.57ZM523.5,756.4h0l-2.88.56-1.57.29-2.17.39-.92.15-.46.07-3.84.6-1.38.2c-.76.11-1.51.22-2.26.31l-1,.13-.42,0c-1.21.16-2.43.3-3.65.43l-1.67.18-2,.19-2.28.2-2.45.19c-.81.06-1.62.12-2.43.16-.52,0-1.05.07-1.57.09-1.13.07-2.27.12-3.41.17l-.84,0-3.42.1-1.11,0q-4,.06-8,0l-.93,0h-.37l-2.77-.08h-.29l-1.16,0c-1.05,0-2.09-.09-3.13-.15l-2.11-.13-2.35-.15-2.07-.17-1.73-.15-.42,0-1.83-.17-.87-.09-.36,0c-1.57-.16-3.13-.34-4.64-.53l-1.14-.15c-.84-.1-1.67-.22-2.51-.34l-1.23-.18-2.54-.38-.5-.09c-1.63-.26-3.29-.55-5.09-.88l-.24,0-1.08-.2-2.29-.45-1.54-.32-.24-.05-2-.41-1.62-.37-.78-.17-1-.22c-5.86-1.38-11.7-3-17.38-4.82A221.32,221.32,0,0,1,347,719.8a212.19,212.19,0,0,1-47.32-46,200,200,0,0,1-28.54-53.38,232.3,232.3,0,0,1,47.51-4.9,229.24,229.24,0,0,1,70.16,10.89,221.32,221.32,0,0,1,60.64,30.26,212.19,212.19,0,0,1,47.32,46,203,203,0,0,1,22,37.24,3.43,3.43,0,0,0,.11.7,4.64,4.64,0,0,0,1.1,2c1.93,4.42,3.7,8.93,5.27,13.4Zm132.36-82.64a212.19,212.19,0,0,1-47.32,46,221.32,221.32,0,0,1-60.64,30.26c-4.19,1.35-8.51,2.59-12.84,3.7-1.27-3.66-2.68-7.36-4.19-11a211.25,211.25,0,0,0,77.89-38A196.63,196.63,0,0,0,665,635.15a4.55,4.55,0,0,0-.21-4.31,5.07,5.07,0,0,0-3.8-2.37,219.93,219.93,0,0,0-24.1-1.33,214.59,214.59,0,0,0-81.66,15.92A205.5,205.5,0,0,0,493,682.61c-2.67-3-5.43-5.94-8.23-8.75A218.26,218.26,0,0,1,551.11,632a227.81,227.81,0,0,1,85.78-16.54,232.22,232.22,0,0,1,47.51,4.9A200,200,0,0,1,655.86,673.76Z"/><path class="cls-2" d="M430.25,658.94a212.82,212.82,0,0,0-112.74-31.89,222.35,222.35,0,0,0-24.08,1.32,5.11,5.11,0,0,0-3.79,2.38,4.57,4.57,0,0,0-.21,4.32c16,33.59,41.69,62.09,74.33,82.42A212.84,212.84,0,0,0,452.3,748l.12,0,.58.06.39,0,1.2.13,2.26.21.37,0,.87.07c.91.08,1.81.15,2.72.21l1.59.11,2.35.14,1.12.06h.37l2,.09,1.47,0,2.18.05,1.22,0,3.42,0a219.57,219.57,0,0,0,24.08-1.33,5.07,5.07,0,0,0,3.79-2.37,4.57,4.57,0,0,0,.21-4.32C488.59,707.77,462.88,679.27,430.25,658.94Z"/><path class="cls-2" d="M126.71,376.6a21.87,21.87,0,0,0,3.86-2.24,25.46,25.46,0,0,0,5.82-5.91,23.41,23.41,0,0,0,3.35-7.06,26.86,26.86,0,0,0,1-7.24c0-5.4-1.13-10-3.37-13.58a23.9,23.9,0,0,0-9-8.5,41.28,41.28,0,0,0-13-4.26,95.28,95.28,0,0,0-15.6-1.22h-39V433.73H103a71.34,71.34,0,0,0,16.19-1.8,40.23,40.23,0,0,0,13.58-5.76,28.69,28.69,0,0,0,12.79-24.79c0-7.32-2-13.17-6-17.36C136.49,380.75,132.17,378.27,126.71,376.6Zm-18.83-11.72c-1.79,1.7-4.72,2.57-8.72,2.57H91.61V351.07h7.55c4.11,0,7.13.6,9,1.8,1.62,1.05,2.41,2.83,2.41,5.43A8.59,8.59,0,0,1,107.88,364.88ZM91.61,390h9.47c5.06,0,8.8.77,11.11,2.28,2.11,1.38,3.14,3.63,3.14,6.87,0,4.34-1.48,10.1-14.25,10.1H91.61Z"/><path class="cls-2" d="M213.85,385.11c0,8.86-1.21,15.11-3.6,18.58-2.3,3.31-5.78,4.93-10.65,4.93s-8.29-1.61-10.47-4.91c-2.3-3.47-3.46-9.73-3.46-18.6V326.59H154.81v55.33c0,18.09,3.7,31.69,11,40.43s18.74,13.29,33.78,13.29,26.17-4.48,33.4-13.31,10.75-22.33,10.75-40.41V326.59h-29.9Z"/><rect class="cls-2" x="260.05" y="326.59" width="30.86" height="107.13"/><polygon class="cls-2" points="338.65 326.6 307.79 326.6 307.79 433.73 377.91 433.73 377.91 407.34 338.65 407.34 338.65 326.6"/><path class="cls-2" d="M459.29,339a45.14,45.14,0,0,0-17.49-9.45,78.46,78.46,0,0,0-22.1-3H387.36V433.73H421.3a69.72,69.72,0,0,0,21.18-3.11,45.3,45.3,0,0,0,17.07-9.79,44.43,44.43,0,0,0,11.21-16.91c2.62-6.77,3.94-14.92,3.94-24.24s-1.35-17.43-4-24.09A43.57,43.57,0,0,0,459.29,339Zm-16.08,40.69a44.6,44.6,0,0,1-2,14.44,21,21,0,0,1-5.22,8.57,18.36,18.36,0,0,1-7.82,4.31,38.2,38.2,0,0,1-10,1.3V352a43,43,0,0,1,10,1.14,18,18,0,0,1,7.8,4,19.85,19.85,0,0,1,5.2,8.24A43.31,43.31,0,0,1,443.21,379.68Z"/><path class="cls-2" d="M602.14,384c-3.09-3.27-7.41-5.75-12.87-7.42a21.87,21.87,0,0,0,3.86-2.24,25.46,25.46,0,0,0,5.82-5.91,23.41,23.41,0,0,0,3.35-7.06,26.86,26.86,0,0,0,1-7.24c0-5.4-1.13-10-3.37-13.58a23.9,23.9,0,0,0-9-8.5,41.28,41.28,0,0,0-13-4.26,95.36,95.36,0,0,0-15.6-1.22H523.31V433.73h42.24a71.4,71.4,0,0,0,16.19-1.8,40.09,40.09,0,0,0,13.57-5.76,28.67,28.67,0,0,0,12.8-24.79C608.11,394.06,606.1,388.21,602.14,384Zm-31.7-19.14c-1.79,1.7-4.72,2.57-8.72,2.57h-7.55V351.07h7.55c4.11,0,7.13.6,9,1.8,1.62,1.05,2.41,2.83,2.41,5.43A8.59,8.59,0,0,1,570.44,364.88ZM554.17,390h9.47c5.06,0,8.8.77,11.11,2.28,2.11,1.38,3.14,3.63,3.14,6.87,0,4.34-1.48,10.1-14.25,10.1h-9.47Z"/><path class="cls-2" d="M639.32,326.59,606.69,433.73h31.74l5.1-22h26.34l5.1,22h32.7L675,326.59Zm24.78,60.48H649.3l1.23-5.05c1.28-5,2.54-10.47,3.77-16.27q1.17-5.53,2.3-10.78c.81,3.43,1.62,7,2.42,10.71,1.27,5.83,2.57,11.32,3.84,16.32Z"/><path class="cls-2" d="M773.86,400.87a26.69,26.69,0,0,1-7.27,5.63,20.63,20.63,0,0,1-9.66,2.12,17.84,17.84,0,0,1-14.86-7.17c-3.83-4.88-5.78-12.1-5.78-21.45A38.76,38.76,0,0,1,738,367.93a27.85,27.85,0,0,1,4.66-8.88,20,20,0,0,1,6.76-5.44,18.29,18.29,0,0,1,8.11-1.9,17.85,17.85,0,0,1,8,1.65,34.55,34.55,0,0,1,7.14,4.95l1.28,1.11L791.19,340l-1.14-1.14a54.74,54.74,0,0,0-14.08-10,41.16,41.16,0,0,0-18.72-4.25,53.34,53.34,0,0,0-19.86,3.79,50.29,50.29,0,0,0-16.77,11,52.61,52.61,0,0,0-11.54,17.65A62.71,62.71,0,0,0,704.8,381a64.12,64.12,0,0,0,4.11,23.85A48.65,48.65,0,0,0,720.16,422a46.08,46.08,0,0,0,16.56,10.27,58.6,58.6,0,0,0,19.89,3.37,45.27,45.27,0,0,0,34.79-15.9l1-1.14-17.27-19.11Z"/><polygon class="cls-2" points="889.03 326.6 854.75 326.6 830.55 362.3 830.55 326.6 799.7 326.6 799.7 433.73 830.55 433.73 830.55 406.71 838.6 395.29 860.74 433.73 894.74 433.73 856.75 370.52 889.03 326.6"/><path class="cls-2" d="M276.82,506.87a21.87,21.87,0,0,0,3.86-2.24,25.07,25.07,0,0,0,5.82-5.91,23.41,23.41,0,0,0,3.35-7.06,26.86,26.86,0,0,0,1-7.24c0-5.4-1.13-10-3.36-13.58a24,24,0,0,0-9-8.5,41.43,41.43,0,0,0-13-4.26,96.3,96.3,0,0,0-15.6-1.22h-39V564H253.1a71.34,71.34,0,0,0,16.19-1.8,40.23,40.23,0,0,0,13.58-5.76,28.69,28.69,0,0,0,12.79-24.78c0-7.33-2-13.18-6-17.37C286.6,511,282.28,508.54,276.82,506.87ZM258,495.15c-1.79,1.7-4.72,2.57-8.72,2.57h-7.55V481.34h7.55c4.11,0,7.13.6,9,1.8,1.62,1.05,2.41,2.83,2.41,5.43A8.59,8.59,0,0,1,258,495.15Zm-16.27,25.13h9.47c5.06,0,8.8.76,11.11,2.27,2.12,1.38,3.14,3.63,3.14,6.87,0,4.34-1.47,10.1-14.25,10.1h-9.47Z"/><polygon class="cls-2" points="337.47 522.51 371.3 522.51 371.3 496.12 337.47 496.12 337.47 483.25 377.04 483.25 377.04 456.87 306.61 456.87 306.61 564 378.64 564 378.64 537.61 337.47 537.61 337.47 522.51"/><polygon class="cls-2" points="384.79 483.25 412.23 483.25 412.23 564 443.09 564 443.09 483.25 470.54 483.25 470.54 456.87 384.79 456.87 384.79 483.25"/><polygon class="cls-2" points="475.39 483.25 502.84 483.25 502.84 564 533.7 564 533.7 483.25 561.14 483.25 561.14 456.87 475.39 456.87 475.39 483.25"/><polygon class="cls-2" points="600.3 522.51 634.13 522.51 634.13 496.12 600.3 496.12 600.3 483.25 639.88 483.25 639.88 456.87 569.45 456.87 569.45 564 641.48 564 641.48 537.61 600.3 537.61 600.3 522.51"/><path class="cls-2" d="M723.61,522.72A33.74,33.74,0,0,0,735,511.49c3.19-5.14,4.81-11.67,4.81-19.41,0-6.73-1.19-12.45-3.55-17a29.1,29.1,0,0,0-9.57-10.92,38.64,38.64,0,0,0-13.85-5.68,78.57,78.57,0,0,0-16.23-1.64h-41V564h30.86V529.21h7.79L712.12,564H746.7ZM686.46,482h8.19c5.08,0,8.94.77,11.48,2.3,2.3,1.39,3.41,3.94,3.41,7.8,0,8.2-4.73,12-14.89,12h-8.19Z"/><path class="cls-3" d="M477.75,854.52c167.38,0,312.16-99.93,377.75-243.18H100C165.59,754.59,310.37,854.52,477.75,854.52Z"/><path class="cls-4" d="M477.75,24.16c167.38,0,312.15,99.93,377.74,243.18h26.39C814.73,110.42,658.74,0,477.75,0s-337,110.42-404.13,267.34H100C165.61,124.09,310.37,24.16,477.75,24.16Z"/><path class="cls-4" d="M477.75,854.52c-167.38,0-312.16-99.93-377.75-243.18H73.62c67.15,156.91,223.14,267.34,404.13,267.34s337-110.43,404.12-267.34H855.5C789.91,754.59,645.13,854.52,477.75,854.52Z"/><polygon class="cls-5" points="464.94 297.07 490.56 297.07 490.56 297.07 464.94 297.07 464.94 297.07"/></g></g></svg>